<?xml version="1.0" encoding="utf-8"?>
<!-- Generator: Adobe Illustrator 26.0.3, SVG Export Plug-In . SVG Version: 6.00 Build 0)  -->
<svg version="1.1" id="Layer_1" xmlns="http://www.w3.org/2000/svg" xmlns:xlink="http://www.w3.org/1999/xlink" x="0px" y="0px"
	 viewBox="0 0 300 100" style="enable-background:new 0 0 300 100;" xml:space="preserve">
<style type="text/css">
	.st0{enable-background:new    ;}
	.st1{fill:#FFFFFF;}
</style>
<g id="headline">
	<g id="copy_01" transform="translate(57.500000, 23.000000)">
		<g class="st0">
			<path class="st1" d="M4.9,8.6L1,11V6.2L5.6,3h5v20H4.9V8.6z"/>
			<path class="st1" d="M22,23.3c-1.3,0-2.5-0.2-3.4-0.5c-1-0.3-1.8-0.8-2.4-1.4c-0.7-0.6-1.1-1.3-1.5-2.1c-0.3-0.8-0.5-1.7-0.5-2.6
				h5.2c0.1,0.4,0.1,0.7,0.2,1c0.1,0.3,0.3,0.5,0.5,0.7c0.2,0.2,0.4,0.4,0.7,0.5C21.1,19,21.5,19,22,19c0.8,0,1.5-0.3,1.8-0.8
				c0.4-0.5,0.6-1.2,0.6-2c0-0.9-0.2-1.6-0.7-2.1c-0.5-0.5-1.1-0.8-2-0.8c-0.8,0-1.5,0.1-2,0.4c-0.5,0.3-1,0.6-1.3,1H15L15.4,3h13.5
				v4.2h-9.4l-0.1,4.4c0.4-0.5,0.9-1,1.7-1.5c0.7-0.4,1.7-0.7,3-0.7c0.9,0,1.7,0.2,2.5,0.4c0.7,0.3,1.4,0.7,1.9,1.3
				c0.5,0.6,0.9,1.3,1.2,2.1c0.3,0.8,0.4,1.8,0.4,2.9c0,1.1-0.2,2-0.6,2.9c-0.4,0.9-0.9,1.6-1.6,2.2c-0.7,0.6-1.6,1.1-2.6,1.4
				C24.4,23.2,23.3,23.3,22,23.3z"/>
			<path class="st1" d="M37,12.8c-0.8,0-1.6-0.1-2.2-0.4c-0.7-0.3-1.2-0.6-1.7-1.1c-0.5-0.4-0.8-1-1.1-1.6c-0.2-0.6-0.4-1.3-0.4-2
				c0-0.7,0.1-1.4,0.4-2c0.3-0.6,0.6-1.1,1.1-1.6c0.5-0.4,1-0.8,1.7-1c0.6-0.3,1.3-0.4,2.1-0.4c0.7,0,1.4,0.1,2.1,0.4
				c0.6,0.2,1.2,0.6,1.7,1c0.5,0.4,0.8,1,1.1,1.6s0.4,1.3,0.4,2c0,0.7-0.1,1.4-0.4,2c-0.3,0.6-0.6,1.2-1,1.6c-0.5,0.5-1,0.8-1.7,1.1
				C38.5,12.7,37.8,12.8,37,12.8z M48.2,3h2.7L37,23h-2.7L48.2,3z M37,9.9c0.5,0,0.9-0.2,1.2-0.6c0.3-0.4,0.4-0.9,0.4-1.6
				s-0.1-1.2-0.4-1.6c-0.3-0.4-0.7-0.6-1.2-0.6s-0.9,0.2-1.2,0.6c-0.3,0.4-0.4,0.9-0.4,1.5c0,0.7,0.1,1.3,0.4,1.6
				C36.1,9.7,36.5,9.9,37,9.9z M48.1,23.3c-0.8,0-1.6-0.1-2.2-0.4c-0.7-0.3-1.2-0.6-1.7-1.1c-0.5-0.4-0.8-1-1.1-1.6
				c-0.2-0.6-0.4-1.3-0.4-2c0-0.7,0.1-1.4,0.4-2s0.6-1.1,1.1-1.6c0.5-0.4,1-0.8,1.7-1c0.6-0.3,1.3-0.4,2.1-0.4
				c0.7,0,1.4,0.1,2.1,0.4c0.7,0.2,1.2,0.6,1.7,1s0.8,0.9,1.1,1.5c0.3,0.6,0.4,1.3,0.4,2c0,0.7-0.1,1.4-0.4,2
				c-0.3,0.6-0.6,1.2-1,1.6c-0.5,0.5-1,0.8-1.7,1.1C49.6,23.2,48.9,23.3,48.1,23.3z M48.1,20.4c0.5,0,0.9-0.2,1.2-0.6
				c0.3-0.4,0.4-0.9,0.4-1.6c0-0.7-0.1-1.2-0.4-1.5c-0.3-0.4-0.7-0.6-1.2-0.6c-0.5,0-0.9,0.2-1.2,0.6c-0.3,0.4-0.4,0.9-0.4,1.5
				c0,0.7,0.1,1.2,0.4,1.6C47.2,20.2,47.6,20.4,48.1,20.4z"/>
			<path class="st1" d="M72.2,23.3c-1.6,0-3.1-0.3-4.4-0.8c-1.3-0.5-2.4-1.2-3.3-2.1c-0.9-0.9-1.6-2-2.1-3.2
				c-0.5-1.2-0.7-2.6-0.7-4.1v-0.2c0-1.5,0.3-2.9,0.8-4.2c0.5-1.2,1.3-2.3,2.2-3.2c1-0.9,2.1-1.6,3.4-2.1c1.3-0.5,2.7-0.7,4.2-0.7
				c1.5,0,2.9,0.2,4.2,0.7c1.3,0.5,2.4,1.1,3.4,2c0.9,0.9,1.7,1.9,2.2,3.2s0.8,2.6,0.8,4.2V13c0,1.5-0.3,3-0.8,4.2s-1.2,2.4-2.2,3.2
				c-0.9,0.9-2.1,1.6-3.4,2.1C75.3,23.1,73.8,23.3,72.2,23.3z M72.3,18.8c1.4,0,2.5-0.5,3.4-1.5c0.8-1,1.2-2.4,1.2-4.2v-0.2
				c0-1.8-0.4-3.2-1.2-4.2c-0.8-1-2-1.5-3.4-1.5s-2.5,0.5-3.4,1.5c-0.8,1-1.2,2.4-1.2,4.2v0.2c0,1.8,0.4,3.2,1.3,4.2
				C69.8,18.3,70.9,18.8,72.3,18.8z"/>
			<path class="st1" d="M86.4,3h13.5v4.4h-7.8v4.3h6.2v4.2h-6.2V23h-5.8V3z"/>
			<path class="st1" d="M103.3,3h13.5v4.4h-7.8v4.3h6.2v4.2h-6.2V23h-5.8V3z"/>
			<path class="st1" d="M131,3h7.4l6.4,20h-6.1l-1.1-3.7H131L130,23h-5.3L131,3z M132.2,15.3h4.4l-2.2-7.7L132.2,15.3z"/>
			<path class="st1" d="M147.8,3h6.5l6.4,11.3V3h5v20h-5.5l-7.3-12.6V23h-5V3z"/>
			<path class="st1" d="M175.1,14.4L168.6,3h6.2l3.4,6.7l3.4-6.7h5.5l-6.2,11.5V23h-5.8V14.4z"/>
		</g>
		<g class="st0">
			<path class="st1" d="M14.8,31h13.5v4.4h-7.8v4.3h6.2v4.2h-6.2V51h-5.8V31z"/>
			<path class="st1" d="M40.9,51.3c-1.6,0-3.1-0.3-4.4-0.8c-1.3-0.5-2.4-1.2-3.3-2.1c-0.9-0.9-1.6-2-2.1-3.2
				c-0.5-1.2-0.7-2.6-0.7-4.1v-0.2c0-1.5,0.3-2.9,0.8-4.2c0.5-1.2,1.3-2.3,2.2-3.2c1-0.9,2.1-1.6,3.4-2.1c1.3-0.5,2.7-0.7,4.2-0.7
				c1.5,0,2.9,0.2,4.2,0.7c1.3,0.5,2.4,1.1,3.4,2c0.9,0.9,1.7,1.9,2.2,3.2c0.5,1.2,0.8,2.6,0.8,4.2V41c0,1.5-0.3,3-0.8,4.2
				s-1.2,2.4-2.2,3.2c-0.9,0.9-2.1,1.6-3.4,2.1S42.5,51.3,40.9,51.3z M41,46.8c1.4,0,2.5-0.5,3.4-1.5c0.8-1,1.2-2.4,1.2-4.2v-0.2
				c0-1.8-0.4-3.2-1.2-4.2s-2-1.5-3.4-1.5c-1.4,0-2.5,0.5-3.4,1.5c-0.8,1-1.2,2.4-1.2,4.2v0.2c0,1.8,0.4,3.2,1.3,4.2
				C38.5,46.3,39.6,46.8,41,46.8z"/>
			<path class="st1" d="M64.5,51.3c-1.6,0-3.1-0.3-4.4-0.8c-1.3-0.5-2.4-1.2-3.3-2.1c-0.9-0.9-1.6-2-2.1-3.2
				C54.3,44,54,42.6,54,41.1v-0.2c0-1.5,0.3-2.9,0.8-4.2c0.5-1.2,1.3-2.3,2.2-3.2c1-0.9,2.1-1.6,3.4-2.1c1.3-0.5,2.7-0.7,4.2-0.7
				c1.5,0,2.9,0.2,4.2,0.7c1.3,0.5,2.4,1.1,3.4,2c0.9,0.9,1.7,1.9,2.2,3.2c0.5,1.2,0.8,2.6,0.8,4.2V41c0,1.5-0.3,3-0.8,4.2
				s-1.2,2.4-2.2,3.2c-0.9,0.9-2.1,1.6-3.4,2.1S66.2,51.3,64.5,51.3z M64.7,46.8c1.4,0,2.5-0.5,3.4-1.5c0.8-1,1.2-2.4,1.2-4.2v-0.2
				c0-1.8-0.4-3.2-1.2-4.2s-2-1.5-3.4-1.5c-1.4,0-2.5,0.5-3.4,1.5c-0.8,1-1.2,2.4-1.2,4.2v0.2c0,1.8,0.4,3.2,1.3,4.2
				C62.1,46.3,63.3,46.8,64.7,46.8z"/>
			<path class="st1" d="M81.9,35.4h-5.2V31h16.1v4.4h-5.2V51h-5.8V35.4z"/>
			<path class="st1" d="M96,31h5.8v15.6h7.6V51H96V31z"/>
			<path class="st1" d="M121.6,51.3c-1.6,0-3.1-0.3-4.4-0.8c-1.3-0.5-2.4-1.2-3.3-2.1c-0.9-0.9-1.6-2-2.1-3.2
				c-0.5-1.2-0.7-2.6-0.7-4.1v-0.2c0-1.5,0.3-2.9,0.8-4.2c0.5-1.2,1.3-2.3,2.2-3.2c1-0.9,2.1-1.6,3.4-2.1c1.3-0.5,2.7-0.7,4.2-0.7
				c1.5,0,2.9,0.2,4.2,0.7c1.3,0.5,2.4,1.1,3.4,2c0.9,0.9,1.7,1.9,2.2,3.2s0.8,2.6,0.8,4.2V41c0,1.5-0.3,3-0.8,4.2s-1.2,2.4-2.2,3.2
				c-0.9,0.9-2.1,1.6-3.4,2.1C124.7,51.1,123.2,51.3,121.6,51.3z M121.7,46.8c1.4,0,2.5-0.5,3.4-1.5c0.8-1,1.2-2.4,1.2-4.2v-0.2
				c0-1.8-0.4-3.2-1.2-4.2c-0.8-1-2-1.5-3.4-1.5s-2.5,0.5-3.4,1.5c-0.8,1-1.2,2.4-1.2,4.2v0.2c0,1.8,0.4,3.2,1.3,4.2
				C119.2,46.3,120.3,46.8,121.7,46.8z"/>
			<path class="st1" d="M135.8,31h6.5l6.4,11.3V31h5v20h-5.5l-7.3-12.6V51h-5V31z"/>
			<path class="st1" d="M167.7,51.3c-1.7,0-3.2-0.3-4.5-0.8s-2.4-1.2-3.3-2.1c-0.9-0.9-1.6-2-2-3.2c-0.5-1.3-0.7-2.6-0.7-4.1v-0.2
				c0-1.5,0.3-2.9,0.8-4.2c0.5-1.2,1.3-2.3,2.2-3.2s2-1.6,3.3-2.1c1.3-0.5,2.7-0.7,4.2-0.7c1.2,0,2.3,0.1,3.4,0.4
				c1.1,0.3,2.1,0.7,2.9,1.3c0.8,0.6,1.5,1.4,2.1,2.3c0.5,0.9,0.9,2,1,3.3h-5.7c-0.1-1-0.5-1.7-1.1-2.1c-0.6-0.5-1.4-0.7-2.5-0.7
				c-1.4,0-2.5,0.5-3.3,1.5c-0.8,1-1.2,2.4-1.2,4.3v0.2c0,0.8,0.1,1.6,0.2,2.3c0.2,0.7,0.4,1.3,0.8,1.8c0.4,0.5,0.9,0.9,1.4,1.2
				c0.6,0.3,1.3,0.4,2.2,0.4c0.7,0,1.3-0.1,1.8-0.3c0.5-0.2,0.9-0.4,1.2-0.7s0.6-0.6,0.7-1s0.2-0.7,0.3-1.1h-3.8v-4h9.4v2.5
				c0,1.3-0.2,2.4-0.6,3.5c-0.4,1.1-1,2-1.8,2.8s-1.8,1.4-3.1,1.9C170.7,51.1,169.3,51.3,167.7,51.3z"/>
		</g>
	</g>
</g>
</svg>
